<svg width="239" height="49" viewBox="0 0 239 49" fill="none" xmlns="http://www.w3.org/2000/svg">
<path fill-rule="evenodd" clip-rule="evenodd" d="M207.553 8.59787C206.122 9.59823 204.828 10.781 203.705 12.1124C208.295 11.6863 214.125 12.3821 220.894 15.7667C228.123 19.3809 233.944 19.5031 237.995 18.7217C237.627 17.6088 237.164 16.5392 236.616 15.5224C231.979 16.0115 226.034 15.3641 219.106 11.9C214.706 9.70018 210.828 8.79401 207.553 8.59787ZM233.907 11.6666C230.245 7.575 224.923 5 219 5C217.26 5 215.573 5.22211 213.964 5.63948C216.143 6.23409 218.458 7.10399 220.894 8.32227C225.967 10.8585 230.346 11.6752 233.907 11.6666ZM238.861 22.6281C233.967 23.5945 227.209 23.396 219.106 19.3444C211.53 15.5566 205.5 15.6043 201.434 16.508C201.224 16.5546 201.019 16.6036 200.819 16.6546C200.287 17.8125 199.862 19.0301 199.557 20.2945C199.882 20.2075 200.219 20.1248 200.566 20.0476C205.5 18.9513 212.47 18.9989 220.894 23.2111C228.47 26.9989 234.5 26.9512 238.566 26.0475C238.706 26.0166 238.843 25.9846 238.978 25.9516C238.993 25.6363 239 25.319 239 25C239 24.1975 238.953 23.406 238.861 22.6281ZM238.325 30.1723C233.478 31.0196 226.917 30.6944 219.106 26.7888C211.53 23.001 205.5 23.0487 201.434 23.9524C200.531 24.1529 199.719 24.3972 199.003 24.6551C199.001 24.7698 199 24.8848 199 25C199 36.0457 207.954 45 219 45C228.257 45 236.045 38.7109 238.325 30.1723Z" fill="#0369A1"/>
<path d="M7.36 34.24L7.48 27.96L18.64 17.64H24.64L15.16 27.16L12.52 29.36L7.36 34.24ZM3.28 39V9.32H8.28V39H3.28ZM19.4 39L11.6 29.36L14.76 25.36L25.48 39H19.4ZM37.3591 39.28C35.5457 39.28 33.9457 38.9467 32.5591 38.28C31.1724 37.5867 30.0924 36.5467 29.3191 35.16C28.5457 33.7467 28.1591 31.9733 28.1591 29.84V17.64H33.1591V29.16C33.1591 31.08 33.5857 32.52 34.4391 33.48C35.3191 34.4133 36.5591 34.88 38.1591 34.88C39.3324 34.88 40.3457 34.64 41.1991 34.16C42.0791 33.68 42.7591 32.96 43.2391 32C43.7457 31.04 43.9991 29.8533 43.9991 28.44V17.64H48.9991V39H44.2391V33.24L45.0791 35C44.3591 36.3867 43.3057 37.4533 41.9191 38.2C40.5324 38.92 39.0124 39.28 37.3591 39.28ZM55.5456 39V17.64H60.3056V23.52L59.7456 21.8C60.3856 20.36 61.3856 19.2667 62.7456 18.52C64.1323 17.7733 65.8523 17.4 67.9056 17.4V22.16C67.6923 22.1067 67.4923 22.08 67.3056 22.08C67.119 22.0533 66.9323 22.04 66.7456 22.04C64.8523 22.04 63.3456 22.6 62.2256 23.72C61.1056 24.8133 60.5456 26.4533 60.5456 28.64V39H55.5456ZM78.9425 39.28C77.1558 39.28 75.4358 39.0533 73.7825 38.6C72.1558 38.12 70.8625 37.5467 69.9025 36.88L71.8225 33.08C72.7825 33.6933 73.9292 34.2 75.2625 34.6C76.5958 35 77.9292 35.2 79.2625 35.2C80.8358 35.2 81.9692 34.9867 82.6625 34.56C83.3825 34.1333 83.7425 33.56 83.7425 32.84C83.7425 32.2533 83.5025 31.8133 83.0225 31.52C82.5425 31.2 81.9158 30.96 81.1425 30.8C80.3692 30.64 79.5025 30.4933 78.5425 30.36C77.6092 30.2267 76.6625 30.0533 75.7025 29.84C74.7692 29.6 73.9158 29.2667 73.1425 28.84C72.3692 28.3867 71.7425 27.7867 71.2625 27.04C70.7825 26.2933 70.5425 25.3067 70.5425 24.08C70.5425 22.72 70.9292 21.5467 71.7025 20.56C72.4758 19.5467 73.5558 18.7733 74.9425 18.24C76.3558 17.68 78.0225 17.4 79.9425 17.4C81.3825 17.4 82.8358 17.56 84.3025 17.88C85.7692 18.2 86.9825 18.6533 87.9425 19.24L86.0225 23.04C85.0092 22.4267 83.9825 22.0133 82.9425 21.8C81.9292 21.56 80.9158 21.44 79.9025 21.44C78.3825 21.44 77.2492 21.6667 76.5025 22.12C75.7825 22.5733 75.4225 23.1467 75.4225 23.84C75.4225 24.48 75.6625 24.96 76.1425 25.28C76.6225 25.6 77.2492 25.8533 78.0225 26.04C78.7958 26.2267 79.6492 26.3867 80.5825 26.52C81.5425 26.6267 82.4892 26.8 83.4225 27.04C84.3558 27.28 85.2092 27.6133 85.9825 28.04C86.7825 28.44 87.4225 29.0133 87.9025 29.76C88.3825 30.5067 88.6225 31.48 88.6225 32.68C88.6225 34.0133 88.2225 35.1733 87.4225 36.16C86.6492 37.1467 85.5425 37.92 84.1025 38.48C82.6625 39.0133 80.9425 39.28 78.9425 39.28ZM101.968 39.28C100.155 39.28 98.5551 38.9467 97.1684 38.28C95.7818 37.5867 94.7018 36.5467 93.9284 35.16C93.1551 33.7467 92.7684 31.9733 92.7684 29.84V17.64H97.7684V29.16C97.7684 31.08 98.1951 32.52 99.0484 33.48C99.9284 34.4133 101.168 34.88 102.768 34.88C103.942 34.88 104.955 34.64 105.808 34.16C106.688 33.68 107.368 32.96 107.848 32C108.355 31.04 108.608 29.8533 108.608 28.44V17.64H113.608V39H108.848V33.24L109.688 35C108.968 36.3867 107.915 37.4533 106.528 38.2C105.142 38.92 103.622 39.28 101.968 39.28ZM126.755 39.28C124.968 39.28 123.248 39.0533 121.595 38.6C119.968 38.12 118.675 37.5467 117.715 36.88L119.635 33.08C120.595 33.6933 121.742 34.2 123.075 34.6C124.408 35 125.742 35.2 127.075 35.2C128.648 35.2 129.782 34.9867 130.475 34.56C131.195 34.1333 131.555 33.56 131.555 32.84C131.555 32.2533 131.315 31.8133 130.835 31.52C130.355 31.2 129.728 30.96 128.955 30.8C128.182 30.64 127.315 30.4933 126.355 30.36C125.422 30.2267 124.475 30.0533 123.515 29.84C122.582 29.6 121.728 29.2667 120.955 28.84C120.182 28.3867 119.555 27.7867 119.075 27.04C118.595 26.2933 118.355 25.3067 118.355 24.08C118.355 22.72 118.742 21.5467 119.515 20.56C120.288 19.5467 121.368 18.7733 122.755 18.24C124.168 17.68 125.835 17.4 127.755 17.4C129.195 17.4 130.648 17.56 132.115 17.88C133.582 18.2 134.795 18.6533 135.755 19.24L133.835 23.04C132.822 22.4267 131.795 22.0133 130.755 21.8C129.742 21.56 128.728 21.44 127.715 21.44C126.195 21.44 125.062 21.6667 124.315 22.12C123.595 22.5733 123.235 23.1467 123.235 23.84C123.235 24.48 123.475 24.96 123.955 25.28C124.435 25.6 125.062 25.8533 125.835 26.04C126.608 26.2267 127.462 26.3867 128.395 26.52C129.355 26.6267 130.302 26.8 131.235 27.04C132.168 27.28 133.022 27.6133 133.795 28.04C134.595 28.44 135.235 29.0133 135.715 29.76C136.195 30.5067 136.435 31.48 136.435 32.68C136.435 34.0133 136.035 35.1733 135.235 36.16C134.462 37.1467 133.355 37.92 131.915 38.48C130.475 39.0133 128.755 39.28 126.755 39.28ZM144.821 34.24L144.941 27.96L156.101 17.64H162.101L152.621 27.16L149.981 29.36L144.821 34.24ZM140.741 39V9.32H145.741V39H140.741ZM156.861 39L149.061 29.36L152.221 25.36L162.941 39H156.861ZM174.82 39.28C173.007 39.28 171.407 38.9467 170.02 38.28C168.633 37.5867 167.553 36.5467 166.78 35.16C166.007 33.7467 165.62 31.9733 165.62 29.84V17.64H170.62V29.16C170.62 31.08 171.047 32.52 171.9 33.48C172.78 34.4133 174.02 34.88 175.62 34.88C176.793 34.88 177.807 34.64 178.66 34.16C179.54 33.68 180.22 32.96 180.7 32C181.207 31.04 181.46 29.8533 181.46 28.44V17.64H186.46V39H181.7V33.24L182.54 35C181.82 36.3867 180.767 37.4533 179.38 38.2C177.993 38.92 176.473 39.28 174.82 39.28Z" fill="#0369A1"/>
</svg>
